<mxfile host="app.diagrams.net" modified="2023-03-01T09:28:44.715Z" agent="5.0 (X11; Linux x86_64) AppleWebKit/537.36 (KHTML, like Gecko) Chrome/110.0.0.0 Safari/537.36" etag="vOfm7y8ard43LkSZNjBT" version="20.8.23" type="github">
  <diagram name="第 1 页" id="gO4-i4PLRS6sXzM86d7W">
    <mxGraphModel dx="770" dy="525" grid="1" gridSize="10" guides="1" tooltips="1" connect="1" arrows="1" fold="1" page="1" pageScale="1" pageWidth="827" pageHeight="1169" math="0" shadow="0">
      <root>
        <mxCell id="0" />
        <mxCell id="1" parent="0" />
        <mxCell id="tpZjkBC5zP2vr8c5ky7i-3" value="" style="edgeStyle=orthogonalEdgeStyle;rounded=0;orthogonalLoop=1;jettySize=auto;html=1;" edge="1" parent="1" source="tpZjkBC5zP2vr8c5ky7i-1" target="tpZjkBC5zP2vr8c5ky7i-2">
          <mxGeometry relative="1" as="geometry" />
        </mxCell>
        <mxCell id="tpZjkBC5zP2vr8c5ky7i-1" value="ConvBNSiLU" style="rounded=1;whiteSpace=wrap;html=1;fillColor=#dae8fc;strokeColor=#6c8ebf;" vertex="1" parent="1">
          <mxGeometry x="170" y="230" width="120" height="60" as="geometry" />
        </mxCell>
        <mxCell id="tpZjkBC5zP2vr8c5ky7i-5" style="edgeStyle=orthogonalEdgeStyle;rounded=0;orthogonalLoop=1;jettySize=auto;html=1;exitX=1;exitY=0.5;exitDx=0;exitDy=0;" edge="1" parent="1" source="tpZjkBC5zP2vr8c5ky7i-2" target="tpZjkBC5zP2vr8c5ky7i-4">
          <mxGeometry relative="1" as="geometry" />
        </mxCell>
        <mxCell id="tpZjkBC5zP2vr8c5ky7i-2" value="ConvBNSiLU" style="rounded=1;whiteSpace=wrap;html=1;fillColor=#dae8fc;strokeColor=#6c8ebf;" vertex="1" parent="1">
          <mxGeometry x="350" y="230" width="120" height="60" as="geometry" />
        </mxCell>
        <mxCell id="tpZjkBC5zP2vr8c5ky7i-6" style="edgeStyle=orthogonalEdgeStyle;rounded=0;orthogonalLoop=1;jettySize=auto;html=1;exitX=1;exitY=0.5;exitDx=0;exitDy=0;" edge="1" parent="1" source="tpZjkBC5zP2vr8c5ky7i-4">
          <mxGeometry relative="1" as="geometry">
            <mxPoint x="640" y="260" as="targetPoint" />
          </mxGeometry>
        </mxCell>
        <mxCell id="tpZjkBC5zP2vr8c5ky7i-4" value="Add" style="ellipse;whiteSpace=wrap;html=1;aspect=fixed;" vertex="1" parent="1">
          <mxGeometry x="530" y="235" width="50" height="50" as="geometry" />
        </mxCell>
        <mxCell id="tpZjkBC5zP2vr8c5ky7i-7" value="" style="endArrow=classic;html=1;rounded=0;entryX=0;entryY=0.5;entryDx=0;entryDy=0;" edge="1" parent="1" target="tpZjkBC5zP2vr8c5ky7i-1">
          <mxGeometry width="50" height="50" relative="1" as="geometry">
            <mxPoint x="70" y="260" as="sourcePoint" />
            <mxPoint x="420" y="250" as="targetPoint" />
          </mxGeometry>
        </mxCell>
        <mxCell id="tpZjkBC5zP2vr8c5ky7i-8" value="" style="endArrow=classic;html=1;rounded=0;entryX=0.5;entryY=1;entryDx=0;entryDy=0;" edge="1" parent="1" target="tpZjkBC5zP2vr8c5ky7i-4">
          <mxGeometry width="50" height="50" relative="1" as="geometry">
            <mxPoint x="120" y="260" as="sourcePoint" />
            <mxPoint x="420" y="250" as="targetPoint" />
            <Array as="points">
              <mxPoint x="120" y="360" />
              <mxPoint x="555" y="360" />
            </Array>
          </mxGeometry>
        </mxCell>
      </root>
    </mxGraphModel>
  </diagram>
</mxfile>
